# xmcd
#
# Track frame offsets: 
#        150
#        33978
#        48934
#        94734
#        112586
#        139393
#        176796
#        203307
#        227692
#
# Disc length: 3314 seconds
#
# Revision: 0
# Processed by: cddbd v1.4PL0 Copyright (c) Steve Scherf et al.
# Submitted via: ExactAudioCopy v0.90a11
#
DISCID=6a0cf009
DTITLE=Tony Vega Band - Yeah You Right
DYEAR=1900
DGENRE=
TTITLE0=Silver Belly
TTITLE1=Dear Sweet Goodness
TTITLE2=Five Minutes
TTITLE3=Jimmie Lee
TTITLE4=Walkin' Blues
TTITLE5=Yeah You Right (Bavarian Chili)
TTITLE6=Old Maid
TTITLE7=Dirty Girl
TTITLE8=Send Me
EXTD=
EXTT0=
EXTT1=
EXTT2=
EXTT3=
EXTT4=
EXTT5=
EXTT6=
EXTT7=
EXTT8=
PLAYORDER=
